<?xml version="1.0" standalone="no"?>
<!DOCTYPE svg PUBLIC "-//W3C//DTD SVG 20010904//EN"
 "http://www.w3.org/TR/2001/REC-SVG-20010904/DTD/svg10.dtd">
<svg version="1.0" xmlns="http://www.w3.org/2000/svg"
 width="144.000000pt" height="144.000000pt" viewBox="0 0 144.000000 144.000000"
 preserveAspectRatio="xMidYMid meet">
<metadata>
Created by potrace 1.16, written by Peter Selinger 2001-2019
</metadata>
<g transform="translate(0.000000,144.000000) scale(0.100000,-0.100000)"
fill="#000000" stroke="none">
<path d="M533 1331 c-329 -14 -375 -19 -390 -34 -17 -16 -18 -53 -20 -455 l-3
-437 108 -148 107 -149 215 6 c357 9 704 27 723 38 10 5 22 20 27 34 6 15 10
214 10 474 l0 448 -166 117 c-127 89 -175 118 -203 120 -20 2 -204 -4 -408
-14z m558 -112 c71 -49 129 -94 129 -98 0 -4 -154 -13 -342 -20 -189 -6 -383
-14 -433 -17 l-90 -5 -97 78 c-131 105 -130 115 12 125 127 10 469 24 598 26
l94 2 129 -91z m-788 -142 l27 -23 -2 -434 -3 -435 -82 113 -83 112 0 391 0
390 58 -46 c31 -25 69 -56 85 -68z m955 -9 c9 -9 12 -121 12 -445 0 -402 -1
-433 -17 -441 -10 -5 -108 -12 -218 -16 -110 -4 -298 -11 -418 -17 -166 -8
-222 -7 -233 2 -12 10 -14 83 -14 445 l0 434 23 9 c12 4 182 14 377 21 195 7
357 14 359 16 10 10 118 3 129 -8z"/>
<path d="M605 851 c-3 -6 3 -18 14 -28 18 -17 20 -38 27 -246 6 -192 5 -227
-7 -227 -8 0 -20 -9 -27 -20 -12 -20 -10 -20 98 -20 103 0 110 1 110 20 0 15
-7 20 -25 20 -25 0 -25 1 -25 89 0 100 1 101 85 101 50 0 99 29 121 72 25 47
22 138 -5 182 -35 56 -70 66 -224 66 -75 0 -138 -4 -142 -9z m135 -114 c0 -46
3 -152 7 -235 l6 -152 -35 0 -35 0 -7 225 c-4 123 -5 229 -1 235 3 5 19 10 36
10 l29 0 0 -83z m124 22 c3 -34 6 -93 6 -130 l0 -69 -48 0 -49 0 -6 121 c-4
67 -4 125 -1 130 3 5 25 9 48 9 l43 0 7 -61z"/>
</g>
</svg>
